<svg width="134" height="45" viewBox="0 0 134 45" fill="none" xmlns="http://www.w3.org/2000/svg">
<path d="M133.157 41.9103V45.008H1.28424V41.9103H133.165H133.157Z" fill="#FF0000"/>
<path d="M19.8936 35.1256V20.5052C19.8936 17.8455 19.1372 15.8388 17.6245 14.493C16.1118 13.1472 13.9531 12.4703 11.1562 12.4703C8.16227 12.4703 5.85383 13.1631 4.22295 14.5408C2.59207 15.9184 1.61512 17.8614 1.28421 20.3539H3.70296C3.96295 18.4587 4.70355 17.0173 5.92474 16.0378C7.13805 15.0584 8.88711 14.5647 11.1562 14.5647C13.1967 14.5647 14.7567 15.0424 15.844 15.9901C16.9312 16.9377 17.4748 18.395 17.4748 20.3539V21.0547C17.4748 21.6519 17.3724 22.1377 17.1518 22.504C16.9391 22.8703 16.5609 23.1569 16.0173 23.3799C15.4737 23.5949 14.7252 23.7781 13.7719 23.9294C12.8186 24.0807 11.5816 24.224 10.0689 24.3514C8.72165 24.4868 7.44531 24.6859 6.24776 24.9487C5.04233 25.2194 3.97871 25.6255 3.04115 26.175C2.10359 26.7245 1.363 27.481 0.819374 28.4445C0.275747 29.408 0.00787354 30.6583 0.00787354 32.1872C0.00787354 33.3817 0.220597 34.4328 0.646044 35.3327C1.07149 36.2325 1.66239 36.989 2.42662 37.6022C3.18297 38.2153 4.06538 38.6852 5.06596 38.9957C6.07443 39.3143 7.16168 39.4656 8.35136 39.4656C9.66709 39.4656 10.8095 39.3143 11.7786 39.0196C12.7476 38.717 13.5907 38.3507 14.2997 37.8968C15.0088 37.4509 15.6076 36.9492 16.1039 36.3997C16.6003 35.8503 17.0257 35.3327 17.3882 34.831H17.5379V35.4282C17.5379 36.2564 17.5773 36.9492 17.6639 37.4987C17.7427 38.0481 17.9003 38.4861 18.1366 38.8205H20.7051V38.6692C20.5081 38.502 20.3269 38.1516 20.1614 37.6181C19.996 37.0846 19.9172 36.2564 19.9172 35.1256H19.8936ZM17.4748 29.639C17.4748 30.6025 17.2857 31.5501 16.9076 32.4818C16.5294 33.4135 15.9621 34.2417 15.2058 34.9743C14.4494 35.7069 13.5198 36.2882 12.4167 36.7183C11.3137 37.1483 10.0374 37.3633 8.58772 37.3633C7.76046 37.3633 6.98047 37.2757 6.23988 37.0925C5.49929 36.9094 4.84536 36.6068 4.28598 36.1927C3.72659 35.7786 3.28539 35.2451 2.95449 34.6C2.62358 33.955 2.45813 33.1746 2.45813 32.2828C2.45813 31.0564 2.6551 30.077 3.04903 29.3603C3.44296 28.6436 3.99447 28.0782 4.70355 27.6641C5.41262 27.25 6.25564 26.9554 7.22471 26.7882C8.19379 26.6209 9.24165 26.4696 10.3604 26.3422C11.6761 26.175 12.9682 25.9918 14.2367 25.7928C15.5052 25.5937 16.5845 25.2592 17.467 24.7974V29.639H17.4748Z" fill="#003FB0"/>
<path d="M26.9528 0.844116H23.8959V38.8126H26.9528V0.844116Z" fill="#003FB0"/>
<path d="M47.3428 28.8825C47.3428 29.9178 47.1852 30.8654 46.8701 31.7254C46.5549 32.5934 46.1137 33.3499 45.5386 33.9949C44.9634 34.6399 44.2622 35.1496 43.4429 35.5159C42.6156 35.8822 41.7017 36.0653 40.6774 36.0653C38.8654 36.0653 37.463 35.6035 36.4545 34.6957C35.4539 33.7799 34.9497 32.4739 34.9497 30.7778V13.3702H30.9552V30.8813C30.9552 33.5729 31.7273 35.6672 33.2715 37.1643C34.8157 38.6613 36.9115 39.4099 39.5429 39.4099C41.418 39.4099 42.9386 39.0356 44.1047 38.2871C45.2707 37.5385 46.3186 36.5352 47.2404 35.269H47.3428V38.8126H51.3373V13.3702H47.3428V28.8825Z" fill="#003FB0"/>
<path d="M117.51 15.2416C116.754 14.3895 115.832 13.7286 114.745 13.2428C113.657 12.765 112.428 12.5182 111.042 12.5182C109.269 12.5182 107.756 12.8765 106.527 13.5932C105.29 14.3099 104.195 15.361 103.25 16.7626H103.1V13.3703H95.3474V38.8126H103.391V24.6939C103.391 23.1013 103.793 21.8033 104.597 20.7999C105.401 19.8045 106.48 19.3028 107.827 19.3028C109.174 19.3028 110.128 19.7169 110.789 20.553C111.443 21.3812 111.774 22.4801 111.774 23.8418V38.8047H119.818V22.1935C119.818 20.7601 119.621 19.4541 119.228 18.2756C118.834 17.097 118.258 16.0777 117.502 15.2336L117.51 15.2416Z" fill="#003FB0"/>
<path d="M133.157 13.3702H123.829V38.8126H133.157V13.3702Z" fill="#003FB0"/>
<path d="M83.0803 12.5182C81.4809 12.5182 80.0391 12.9163 78.747 13.7127C77.4549 14.509 76.3913 15.6079 75.5404 17.0094H75.4459C74.8235 15.6477 73.9096 14.5568 72.7041 13.7445C71.4987 12.9323 70.0963 12.5182 68.4969 12.5182C66.7321 12.5182 65.2509 12.9163 64.0376 13.7127C62.8322 14.509 61.8867 15.4885 61.2013 16.659H61.0595V13.3703H55.3475V38.8126H61.0595V23.4994C61.0595 21.6042 61.5165 20.0832 62.4383 18.9524C63.3601 17.8137 64.5891 17.2483 66.1412 17.2483C67.5436 17.2483 68.6151 17.6624 69.3715 18.4747C70.1278 19.2949 70.506 20.5212 70.506 22.1616V38.8126H76.218V23.4994C76.218 21.6042 76.675 20.0832 77.5968 18.9524C78.5186 17.8137 79.7555 17.2483 81.2997 17.2483C82.7021 17.2483 83.7736 17.6624 84.53 18.4747C85.2863 19.2949 85.6645 20.5212 85.6645 22.1616V38.8126H91.3686V21.5962C91.3686 18.7693 90.6517 16.5476 89.2178 14.939C87.7839 13.3225 85.7433 12.5182 83.0961 12.5182H83.0803Z" fill="#003FB0"/>
<path d="M128.493 11.1246C131.534 11.1246 133.992 8.6321 133.992 5.56627C133.992 2.50044 131.526 0 128.493 0C125.46 0 122.986 2.49248 122.986 5.56627C122.986 8.64006 125.452 11.1246 128.493 11.1246Z" fill="#003FB0"/>
</svg>
